<svg width="39" height="39" viewBox="0 0 39 39" fill="none" xmlns="http://www.w3.org/2000/svg">
<path d="M19.4992 0C18.6919 0 17.9177 0.31836 17.3469 0.885045C16.776 1.45173 16.4553 2.22032 16.4553 3.02173V18.1304C16.4553 18.9318 16.776 19.7004 17.3469 20.2671C17.9177 20.8338 18.6919 21.1521 19.4992 21.1521C20.3065 21.1521 21.0808 20.8338 21.6516 20.2671C22.2224 19.7004 22.5431 18.9318 22.5431 18.1304V3.02173C22.5431 2.22032 22.2224 1.45173 21.6516 0.885045C21.0808 0.31836 20.3065 0 19.4992 0ZM8.60816 3.91919C8.16908 3.97425 7.75558 4.15482 7.418 4.43893C5.10361 6.25074 3.23353 8.56028 1.94861 11.1936C0.66369 13.8269 -0.00257131 16.7153 7.45736e-06 19.6413C7.45736e-06 30.305 8.75427 39 19.4992 39C30.2442 39 39 30.305 39 19.6413C39 13.4875 36.1052 7.98191 31.5805 4.43742C31.3462 4.25141 31.0774 4.11302 30.7893 4.03016C30.5012 3.9473 30.1994 3.92158 29.9013 3.95448C29.6032 3.98738 29.3145 4.07825 29.0517 4.2219C28.789 4.36556 28.5573 4.55918 28.3699 4.79171C28.1826 5.02425 28.0432 5.29115 27.9597 5.57716C27.8762 5.86318 27.8503 6.16272 27.8835 6.45868C27.9166 6.75463 28.0081 7.04121 28.1528 7.30205C28.2975 7.56289 28.4926 7.79288 28.7268 7.97889C30.507 9.36568 31.946 11.1364 32.9348 13.1569C33.9236 15.1775 34.4363 17.3949 34.4341 19.6413C34.4388 21.5895 34.0556 23.5195 33.3067 25.3204C32.5578 27.1213 31.4579 28.7575 30.0701 30.1351C28.6824 31.5128 27.0341 32.6047 25.22 33.3482C23.406 34.0916 21.4618 34.472 19.4992 34.4674C17.5367 34.472 15.5925 34.0916 13.7784 33.3482C11.9644 32.6047 10.3161 31.5128 8.92838 30.1351C7.54062 28.7575 6.4407 27.1213 5.69179 25.3204C4.94287 23.5195 4.55972 21.5895 4.56434 19.6413C4.56216 17.3949 5.07489 15.1775 6.06371 13.1569C7.05252 11.1364 8.49149 9.36568 10.2717 7.97889C10.6747 7.67836 10.9662 7.25385 11.1007 6.77158C11.2353 6.28932 11.2052 5.77642 11.0153 5.31289C10.8253 4.84936 10.4862 4.46127 10.0508 4.20916C9.61533 3.95705 9.10809 3.85509 8.60816 3.91919Z" fill="#737373"/>
</svg>
