<svg width="235" height="52" viewBox="0 0 235 52" fill="none" xmlns="http://www.w3.org/2000/svg">
<circle cx="25.5474" cy="26.0474" r="24.8107" fill="url(#paint0_linear_90_166)" stroke="url(#paint1_linear_90_166)" stroke-width="0.526653"/>
<g clip-path="url(#clip0_90_166)">
<path d="M37.3711 19.3273L36.5805 31.6539L29.0695 15.5L37.3711 19.3273ZM32.1602 35.2656L26.5 38.5L20.8398 35.2656L21.9898 32.4805H31.0281L32.1602 35.2656ZM26.5 21.6273L29.4648 28.8508H23.5352L26.5 21.6273ZM16.4195 31.6539L15.6289 19.3273L23.9305 15.5L16.4195 31.6539Z" fill="url(#paint2_linear_90_166)"/>
<path d="M37.3711 19.3273L36.5805 31.6539L29.0695 15.5L37.3711 19.3273ZM32.1602 35.2656L26.5 38.5L20.8398 35.2656L21.9898 32.4805H31.0281L32.1602 35.2656ZM26.5 21.6273L29.4648 28.8508H23.5352L26.5 21.6273ZM16.4195 31.6539L15.6289 19.3273L23.9305 15.5L16.4195 31.6539Z" fill="url(#paint3_linear_90_166)"/>
</g>
<circle cx="71.5474" cy="26.0474" r="24.8107" fill="url(#paint4_linear_90_166)" stroke="url(#paint5_linear_90_166)" stroke-width="0.526653"/>
<g clip-path="url(#clip1_90_166)">
<path d="M63.7342 15.5C62.159 15.5 60.9933 16.8788 61.0455 18.374C61.0956 19.8105 61.0305 21.6711 60.5621 23.1884C60.0924 24.71 59.2978 25.6739 58 25.7977V27.1949C59.2978 27.3187 60.0924 28.2826 60.5621 29.8044C61.0305 31.3217 61.0956 33.1821 61.0455 34.6186C60.9933 36.1137 62.159 37.4927 63.7345 37.4927H79.8757C81.451 37.4927 82.6164 36.1139 82.5642 34.6186C82.5141 33.1822 82.5792 31.3217 83.0475 29.8044C83.5176 28.2828 84.3101 27.3186 85.6078 27.1949V25.7977C84.3101 25.6739 83.5176 24.71 83.0476 23.1884C82.5792 21.6713 82.5141 19.8106 82.5642 18.374C82.6164 16.879 81.451 15.5 79.8757 15.5H63.734H63.7342ZM76.7173 29.0379C76.7173 31.0968 75.1816 32.3454 72.633 32.3454H68.2945C68.1704 32.3454 68.0514 32.296 67.9637 32.2083C67.876 32.1206 67.8267 32.0016 67.8267 31.8775V21.1152C67.8267 20.9911 67.876 20.872 67.9637 20.7843C68.0515 20.6965 68.1705 20.6472 68.2946 20.6471H72.6082C74.7333 20.6471 76.1279 21.7984 76.1279 23.5657C76.1279 24.8062 75.1897 25.9168 73.9944 26.1112V26.176C75.6217 26.3545 76.7173 27.4814 76.7173 29.0379ZM72.1598 22.1305H69.6862V25.6246H71.7697C73.3803 25.6246 74.2685 24.9761 74.2685 23.8168C74.2685 22.7305 73.5046 22.1305 72.1598 22.1305ZM69.6863 27.0111V30.8616H72.251C73.9278 30.8616 74.8162 30.1888 74.8162 28.9242C74.8162 27.6594 73.9031 27.0109 72.1432 27.0109H69.6863V27.0111Z" fill="#7E13F8"/>
</g>
<circle cx="117.547" cy="26.0474" r="24.8107" fill="url(#paint6_linear_90_166)" stroke="url(#paint7_linear_90_166)" stroke-width="0.526653"/>
<g clip-path="url(#clip2_90_166)">
<path d="M126.4 14.5H109.6C107.612 14.5 106 16.0446 106 17.95V34.05C106 35.9554 107.612 37.5 109.6 37.5H126.4C128.388 37.5 130 35.9554 130 34.05V17.95C130 16.0446 128.388 14.5 126.4 14.5Z" fill="#3178C6"/>
<path d="M116.922 27.8126H119.922V25.8908H111.531V27.8126H114.531V36.3908H116.922V27.8126ZM120.86 35.922C121.239 36.1189 121.703 36.2642 122.219 36.3626C122.735 36.4611 123.297 36.5079 123.86 36.5079C124.422 36.5079 124.938 36.4564 125.453 36.3486C125.969 36.2408 126.391 36.0626 126.766 35.8329C127.146 35.5845 127.469 35.2704 127.656 34.8486C127.844 34.4267 127.989 33.9579 127.989 33.3486C127.989 32.922 127.924 32.5517 127.797 32.2236C127.671 31.8954 127.488 31.6142 127.235 31.3798C126.996 31.1314 126.719 30.9111 126.391 30.7236C126.063 30.5361 125.688 30.3392 125.266 30.1611C124.956 30.0345 124.703 29.9126 124.422 29.7908C124.178 29.6689 123.967 29.547 123.813 29.4251C123.639 29.2986 123.508 29.1673 123.414 29.0314C123.321 28.8908 123.274 28.7361 123.274 28.5626C123.274 28.4033 123.315 28.2579 123.4 28.1267C123.485 27.9954 123.602 27.8876 123.752 27.7939C123.902 27.7001 124.089 27.6298 124.314 27.5783C124.535 27.5267 124.778 27.5033 125.064 27.5033C125.261 27.5033 125.467 27.5178 125.674 27.5473C125.889 27.5768 126.11 27.6223 126.33 27.6833C126.55 27.7442 126.766 27.8192 126.986 27.9129C127.192 28.0067 127.385 28.1145 127.549 28.2364V26.0333C127.192 25.8973 126.799 25.7942 126.377 25.7286C125.955 25.6629 125.486 25.6301 124.924 25.6301C124.361 25.6301 123.846 25.6911 123.33 25.8083C122.814 25.9254 122.392 26.1129 122.017 26.3708C121.638 26.6239 121.361 26.9333 121.127 27.3551C120.906 27.7489 120.799 28.1989 120.799 28.7614C120.799 29.4645 121 30.0739 121.408 30.5426C121.811 31.0583 122.439 31.4333 123.236 31.8083C123.56 31.9395 123.846 32.0708 124.127 32.1973C124.408 32.3239 124.642 32.4551 124.83 32.5911C125.031 32.727 125.191 32.877 125.299 33.0364C125.416 33.1958 125.477 33.3833 125.477 33.5989C125.477 33.7489 125.44 33.8895 125.369 34.0208C125.298 34.152 125.186 34.2645 125.036 34.3583C124.886 34.452 124.703 34.527 124.474 34.5833C124.253 34.6348 124.005 34.6629 123.677 34.6629C123.161 34.6629 122.646 34.5739 122.177 34.3958C121.661 34.2176 121.192 33.9504 120.86 33.672V35.922Z" fill="white"/>
</g>
<circle cx="163.547" cy="26.0474" r="24.8107" fill="url(#paint8_linear_90_166)" stroke="url(#paint9_linear_90_166)" stroke-width="0.526653"/>
<path d="M178 34.523C176.982 34.81 176.352 34.5354 175.787 33.5954C174.518 31.4904 173.118 29.4818 171.767 27.4361C171.592 27.1714 171.412 26.9116 171.186 26.5827C169.587 28.9722 167.99 31.2479 166.491 33.6152C165.955 34.4612 165.393 34.8298 164.392 34.5305L170.404 25.5932L164.807 17.5217C165.77 17.3139 166.436 17.4203 167.025 18.3751C168.327 20.4827 169.763 22.4888 171.195 24.6112C172.635 22.4962 174.054 20.4876 175.394 18.3999C175.932 17.5539 176.51 17.2323 177.477 17.544C176.745 18.62 176.028 19.6787 175.307 20.73C174.333 22.1474 173.377 23.5821 172.367 24.9698C172.008 25.4646 172.066 25.7861 172.387 26.2537C174.255 28.9722 176.099 31.7179 178 34.523ZM150.007 25.4448C150.168 24.5518 150.275 23.6415 150.498 22.7658C151.838 17.4648 157.332 15.2608 161.107 18.5458C163.318 20.4728 163.867 23.1888 163.758 26.2512H151.295C151.108 31.7451 154.679 35.0623 159.231 33.3703C160.827 32.7766 161.768 31.3914 162.239 29.6599C162.478 28.7916 162.873 28.6556 163.61 28.9029C163.233 31.0698 162.377 32.8805 160.591 34.0135C157.911 35.7104 154.085 35.1612 152.073 32.8039C150.884 31.4186 150.38 29.6945 150.156 27.8318C150.123 27.535 150.054 27.2431 150 26.9488C150.004 26.4474 150.007 25.9461 150.007 25.4448ZM151.318 25.0762H162.581C162.507 21.1035 160.274 18.2811 157.221 18.2564C153.87 18.2267 151.463 20.9823 151.318 25.0762Z" fill="white"/>
<circle cx="209.547" cy="26.0474" r="24.8107" fill="url(#paint10_linear_90_166)" stroke="url(#paint11_linear_90_166)" stroke-width="0.526653"/>
<path d="M210.101 39.0624L209.373 38.8212C209.373 38.8212 209.47 35.14 208.138 34.8813C207.266 33.8661 208.267 -8.46152 211.454 34.737C210.849 35.0427 210.385 35.5717 210.163 36.2124C210.042 37.1576 210.021 38.1129 210.101 39.0624Z" fill="url(#paint12_linear_90_166)"/>
<path d="M210.494 35.5063C212.431 34.0483 213.915 32.0704 214.772 29.8024C215.63 27.5344 215.826 25.0696 215.338 22.6946C213.914 16.4122 210.541 14.3469 210.178 13.5583C209.866 13.0667 209.598 12.5479 209.379 12.0083L209.647 29.5126C209.647 29.5126 209.091 34.8621 210.494 35.5063Z" fill="url(#paint13_linear_90_166)"/>
<path d="M209.003 35.7387C209.003 35.7387 203.073 31.7 203.416 24.5555C203.448 22.4016 203.942 20.2797 204.864 18.333C205.787 16.3864 207.116 14.6603 208.763 13.2715C208.955 13.1078 209.108 12.9028 209.209 12.6718C209.311 12.4408 209.36 12.1898 209.351 11.9375C209.72 12.7319 209.66 23.7979 209.699 25.0922C209.849 30.1268 209.419 34.7884 209.003 35.7387Z" fill="url(#paint14_linear_90_166)"/>
<defs>
<linearGradient id="paint0_linear_90_166" x1="11.1254" y1="1.5" x2="48.4914" y2="10.3999" gradientUnits="userSpaceOnUse">
<stop/>
<stop offset="1" stop-color="#151730"/>
</linearGradient>
<linearGradient id="paint1_linear_90_166" x1="25.5474" y1="1.5" x2="25.5474" y2="50.5948" gradientUnits="userSpaceOnUse">
<stop stop-color="#66699C" stop-opacity="0.43"/>
<stop offset="1" stop-color="#363749" stop-opacity="0.49"/>
</linearGradient>
<linearGradient id="paint2_linear_90_166" x1="17.6421" y1="30.5452" x2="34.9426" y2="22.3238" gradientUnits="userSpaceOnUse">
<stop stop-color="#E40035"/>
<stop offset="0.24" stop-color="#F60A48"/>
<stop offset="0.352" stop-color="#F20755"/>
<stop offset="0.494" stop-color="#DC087D"/>
<stop offset="0.745" stop-color="#9717E7"/>
<stop offset="1" stop-color="#6C00F5"/>
</linearGradient>
<linearGradient id="paint3_linear_90_166" x1="20.163" y1="17.8232" x2="31.4849" y2="30.7384" gradientUnits="userSpaceOnUse">
<stop stop-color="#FF31D9"/>
<stop offset="1" stop-color="#FF5BE1" stop-opacity="0"/>
</linearGradient>
<linearGradient id="paint4_linear_90_166" x1="57.1254" y1="1.5" x2="94.4914" y2="10.3999" gradientUnits="userSpaceOnUse">
<stop stop-color="#000106"/>
<stop offset="1" stop-color="#151730"/>
</linearGradient>
<linearGradient id="paint5_linear_90_166" x1="71.5474" y1="1.5" x2="71.5474" y2="50.5948" gradientUnits="userSpaceOnUse">
<stop stop-color="#66699C" stop-opacity="0.43"/>
<stop offset="1" stop-color="#363749" stop-opacity="0.49"/>
</linearGradient>
<linearGradient id="paint6_linear_90_166" x1="103.125" y1="1.5" x2="140.491" y2="10.3999" gradientUnits="userSpaceOnUse">
<stop/>
<stop offset="1" stop-color="#151730"/>
</linearGradient>
<linearGradient id="paint7_linear_90_166" x1="117.547" y1="1.5" x2="117.547" y2="50.5948" gradientUnits="userSpaceOnUse">
<stop stop-color="#66699C" stop-opacity="0.43"/>
<stop offset="1" stop-color="#363749" stop-opacity="0.49"/>
</linearGradient>
<linearGradient id="paint8_linear_90_166" x1="149.125" y1="1.5" x2="186.491" y2="10.3999" gradientUnits="userSpaceOnUse">
<stop/>
<stop offset="1" stop-color="#151730"/>
</linearGradient>
<linearGradient id="paint9_linear_90_166" x1="163.547" y1="1.5" x2="163.547" y2="50.5948" gradientUnits="userSpaceOnUse">
<stop stop-color="#66699C" stop-opacity="0.43"/>
<stop offset="1" stop-color="#363749" stop-opacity="0.49"/>
</linearGradient>
<linearGradient id="paint10_linear_90_166" x1="195.125" y1="1.5" x2="232.491" y2="10.3999" gradientUnits="userSpaceOnUse">
<stop/>
<stop offset="1" stop-color="#151730"/>
</linearGradient>
<linearGradient id="paint11_linear_90_166" x1="209.547" y1="1.5" x2="209.547" y2="50.5948" gradientUnits="userSpaceOnUse">
<stop stop-color="#66699C" stop-opacity="0.43"/>
<stop offset="1" stop-color="#363749" stop-opacity="0.49"/>
</linearGradient>
<linearGradient id="paint12_linear_90_166" x1="205.21" y1="25.7444" x2="213.572" y2="28.582" gradientUnits="userSpaceOnUse">
<stop offset="0.231" stop-color="#999875"/>
<stop offset="0.563" stop-color="#9B9977"/>
<stop offset="0.683" stop-color="#A09F7E"/>
<stop offset="0.768" stop-color="#A9A889"/>
<stop offset="0.837" stop-color="#B7B69A"/>
<stop offset="0.896" stop-color="#C9C7B0"/>
<stop offset="0.948" stop-color="#DEDDCB"/>
<stop offset="0.994" stop-color="#F8F6EB"/>
<stop offset="1" stop-color="#FBF9EF"/>
</linearGradient>
<linearGradient id="paint13_linear_90_166" x1="208.276" y1="11.8832" x2="211.973" y2="34.9675" gradientUnits="userSpaceOnUse">
<stop stop-color="#48A547"/>
<stop offset="1" stop-color="#3F9143"/>
</linearGradient>
<linearGradient id="paint14_linear_90_166" x1="202.906" y1="25.2627" x2="212.827" y2="21.9403" gradientUnits="userSpaceOnUse">
<stop stop-color="#41A247"/>
<stop offset="0.352" stop-color="#4BA74B"/>
<stop offset="0.956" stop-color="#67B554"/>
<stop offset="1" stop-color="#69B655"/>
</linearGradient>
<clipPath id="clip0_90_166">
<rect width="23" height="23" fill="white" transform="translate(15 15.5)"/>
</clipPath>
<clipPath id="clip1_90_166">
<rect width="27.6078" height="22" fill="white" transform="translate(58 15.5)"/>
</clipPath>
<clipPath id="clip2_90_166">
<rect width="24" height="24" fill="white" transform="translate(106 14.5)"/>
</clipPath>
</defs>
</svg>
